<svg xmlns="http://www.w3.org/2000/svg" xmlns:xlink="http://www.w3.org/1999/xlink" width="218" height="62.402" viewBox="0 0 218 62.402">
  <defs>
    <clipPath id="clip-path">
      <path id="Clip_8" data-name="Clip 8" d="M0,0H65.721V62.4H0Z" transform="translate(0 0.598)" fill="none"/>
    </clipPath>
  </defs>
  <g id="Group_16" data-name="Group 16" transform="translate(0 -0.598)">
    <path id="Fill_1" data-name="Fill 1" d="M129.35,37a15.3,15.3,0,0,1-7.182-1.629,11.773,11.773,0,0,1-4.81-4.585,13.368,13.368,0,0,1-1.707-6.781,13.338,13.338,0,0,1,1.707-6.8,11.669,11.669,0,0,1,4.81-4.537,16.747,16.747,0,0,1,14.315,0,11.679,11.679,0,0,1,4.811,4.537,13.338,13.338,0,0,1,1.706,6.8,13.369,13.369,0,0,1-1.706,6.781,11.783,11.783,0,0,1-4.811,4.585A15.187,15.187,0,0,1,129.35,37Zm0-19.894a6.01,6.01,0,0,0-4.622,1.938,7.219,7.219,0,0,0-1.777,5.056,7.213,7.213,0,0,0,1.777,5.056,6.424,6.424,0,0,0,9.2,0A7.216,7.216,0,0,0,135.7,24.1a7.222,7.222,0,0,0-1.777-5.056A5.956,5.956,0,0,0,129.35,17.105ZM99.347,37a15.289,15.289,0,0,1-7.18-1.629,11.783,11.783,0,0,1-4.812-4.585,13.377,13.377,0,0,1-1.706-6.781,13.346,13.346,0,0,1,1.706-6.8,11.679,11.679,0,0,1,4.812-4.537,16.743,16.743,0,0,1,14.313,0A11.668,11.668,0,0,1,111.29,17.2a13.33,13.33,0,0,1,1.706,6.8,13.361,13.361,0,0,1-1.706,6.781,11.772,11.772,0,0,1-4.811,4.585A15.187,15.187,0,0,1,99.347,37Zm0-19.894a6.012,6.012,0,0,0-4.622,1.938A7.222,7.222,0,0,0,92.948,24.1a7.216,7.216,0,0,0,1.777,5.056,6.424,6.424,0,0,0,9.2,0A7.213,7.213,0,0,0,105.7,24.1a7.219,7.219,0,0,0-1.777-5.056A5.956,5.956,0,0,0,99.347,17.105ZM30.856,37a14.793,14.793,0,0,1-7.039-1.606,11.326,11.326,0,0,1-4.645-4.536A13.688,13.688,0,0,1,17.537,24.1,13.767,13.767,0,0,1,19.2,17.272a11.645,11.645,0,0,1,4.646-4.584,14.068,14.068,0,0,1,6.826-1.631c4.088,0,7.238,1.192,9.361,3.544s3.2,5.674,3.2,9.877c0,.749-.016,1.337-.048,1.748H24.884a6.653,6.653,0,0,0,2.369,3.757,6.754,6.754,0,0,0,4.218,1.346,9.045,9.045,0,0,0,3.461-.685,9.177,9.177,0,0,0,2.985-2.009l3.839,3.874a12.961,12.961,0,0,1-4.716,3.332A15.955,15.955,0,0,1,30.856,37Zm-.142-20.6a5.582,5.582,0,0,0-3.957,1.489,6.936,6.936,0,0,0-2.015,4.04H36.355a5.786,5.786,0,0,0-1.611-4.017A5.485,5.485,0,0,0,30.713,16.4ZM60.669,36.718H53.181l-9.67-25.376,7.536-.048,6.02,18.525,5.972-18.525h7.252L60.669,36.717Zm20.145,0h-7.3V11.293h7.3V36.716Zm-73.514,0H0V11.293H7.3v4.584a9.3,9.3,0,0,1,3.46-3.59,10.17,10.17,0,0,1,4.977-1.276v6.852a9.99,9.99,0,0,0-1.139-.047,7.575,7.575,0,0,0-5.331,1.819A6.307,6.307,0,0,0,7.3,24.478V36.716ZM77.117,8.128A3.759,3.759,0,0,1,74.3,6.97a4.044,4.044,0,0,1-1.114-2.907A4.025,4.025,0,0,1,74.3,1.133,3.8,3.8,0,0,1,77.117,0a3.859,3.859,0,0,1,2.867,1.133A4.025,4.025,0,0,1,81.1,4.063a4.022,4.022,0,0,1-1.115,2.93A3.859,3.859,0,0,1,77.117,8.128Z" transform="translate(75 11)" fill="#333"/>
    <path id="Fill_3" data-name="Fill 3" d="M0,0H20.853S19.87,3.662,24.6,12.5a90.072,90.072,0,0,0,7.08,10.954,1.652,1.652,0,0,1-2.1,2.4A69.489,69.489,0,0,1,14.01,16.618C3.5,8.246,0,0,0,0" transform="translate(28 37)" fill="#03857d"/>
    <path id="Fill_5" data-name="Fill 5" d="M0,0A46.579,46.579,0,0,0,7.927,10.984L21.808,2.86c-.1-1.785-.079-2.86-.079-2.86Z" transform="translate(27 36)" fill="#045953"/>
    <g id="Group_9" data-name="Group 9">
      <path id="Clip_8-2" data-name="Clip 8" d="M0,0H65.721V62.4H0Z" transform="translate(0 0.598)" fill="none"/>
      <g id="Group_9-2" data-name="Group 9" clip-path="url(#clip-path)">
        <path id="Fill_7" data-name="Fill 7" d="M5.153,0A5.142,5.142,0,0,0,0,5.13V59.768A2.924,2.924,0,0,0,3.145,62.4,3.235,3.235,0,0,0,6,60.88L23.225,37.108H53.542A12.153,12.153,0,0,0,65.722,24.982V11.346A11.371,11.371,0,0,0,54.326,0Z" transform="translate(0 0.598)" fill="#0eb0a4"/>
      </g>
    </g>
    <path id="Fill_10" data-name="Fill 10" d="M2.938.238a2.024,2.024,0,0,0-2.7,2.755A21.674,21.674,0,0,0,19.5,15,21.674,21.674,0,0,0,38.764,2.993a2.024,2.024,0,0,0-2.7-2.755A35.6,35.6,0,0,1,19.5,4.178,35.6,35.6,0,0,1,2.938.238Z" transform="translate(17 17)" fill="#fff"/>
    <path id="Fill_12" data-name="Fill 12" d="M2,0A2.041,2.041,0,0,0,0,2.08V4.92A2.041,2.041,0,0,0,2,7,2.042,2.042,0,0,0,4,4.92V2.08A2.042,2.042,0,0,0,2,0" transform="translate(23 8)" fill="#1d1e1c"/>
    <path id="Fill_14" data-name="Fill 14" d="M2,0A2.041,2.041,0,0,0,0,2.08V4.92A2.041,2.041,0,0,0,2,7,2.041,2.041,0,0,0,4,4.92V2.08A2.041,2.041,0,0,0,2,0" transform="translate(46 8)" fill="#1d1e1c"/>
  </g>
</svg>
